<svg width="27" height="30" viewBox="0 0 27 30" fill="none" xmlns="http://www.w3.org/2000/svg">
<path d="M24.8868 10.7309H24.1665V7.25472C24.1665 7.23289 24.163 7.21123 24.1602 7.18907C24.159 7.05118 24.1151 6.91549 24.0206 6.80825L18.2364 0.201189C18.2348 0.199328 18.2329 0.198781 18.2318 0.197085C18.1974 0.158401 18.1572 0.126393 18.1147 0.0988161C18.1022 0.0905615 18.0893 0.0829108 18.0761 0.0758904C18.0392 0.0556833 18.0003 0.0393109 17.9601 0.0270294C17.9492 0.0241842 17.9395 0.0196976 17.9286 0.0167429C17.8848 0.00645643 17.8394 0 17.7936 0H3.57823C2.92908 0 2.40179 0.52795 2.40179 1.17649V10.7305H1.68157C0.752939 10.7305 0 11.4832 0 12.4119V21.156C0 22.0843 0.752939 22.8377 1.68157 22.8377H2.40179V28.8236C2.40179 29.4722 2.92908 30 3.57823 30H22.99C23.6386 30 24.1665 29.4722 24.1665 28.8236V22.8378H24.8868C25.8151 22.8378 26.5681 22.0847 26.5681 21.1563V12.4123C26.5682 11.4832 25.8151 10.7309 24.8868 10.7309ZM3.57823 1.17649H17.2053V7.19552C17.2053 7.52053 17.4689 7.78377 17.7935 7.78377H22.99V10.7308H3.57823V1.17649ZM12.4345 17.1358C10.9747 16.6274 10.0236 15.8197 10.0236 14.5429C10.0236 13.0435 11.2745 11.8964 13.3466 11.8964C14.3374 11.8964 15.0673 12.1049 15.5882 12.34L15.1456 13.9431C14.7937 13.7731 14.1682 13.5256 13.3077 13.5256C12.4477 13.5256 12.0307 13.9167 12.0307 14.3728C12.0307 14.9335 12.5257 15.1809 13.6601 15.6111C15.2108 16.1845 15.9407 16.9921 15.9407 18.2306C15.9407 19.7029 14.8069 20.9547 12.3956 20.9547C11.3922 20.9547 10.4012 20.6933 9.90618 20.4201L10.31 18.7777C10.8447 19.0521 11.6656 19.3252 12.513 19.3252C13.4252 19.3252 13.9076 18.9473 13.9076 18.3734C13.9074 17.8257 13.49 17.5132 12.4345 17.1358ZM2.08543 16.5619C2.08543 13.5646 4.22338 11.8964 6.88146 11.8964C7.91131 11.8964 8.69325 12.1049 9.0454 12.2876L8.64094 13.8642C8.23714 13.6955 7.6762 13.5393 6.97261 13.5393C5.3956 13.5393 4.17085 14.49 4.17085 16.4446C4.17085 18.2042 5.21324 19.3117 6.98629 19.3117C7.58526 19.3117 8.25005 19.1816 8.64094 19.0251L8.94095 20.5761C8.57588 20.7588 7.75504 20.9547 6.68623 20.9547C3.64952 20.9547 2.08543 19.0642 2.08543 16.5619ZM22.99 28.5047H3.57823V22.8378H22.99V28.5047ZM21.676 20.8238H19.3561L16.541 12.04H18.7179L19.7863 15.7548C20.0861 16.7969 20.3597 17.8004 20.5687 18.8953H20.6075C20.829 17.8394 21.1024 16.7969 21.4023 15.7933L22.5232 12.04H24.6352L21.676 20.8238Z" fill="#00A1B0"/>
</svg>
