<svg width="30" height="30" viewBox="0 0 30 30" fill="none" xmlns="http://www.w3.org/2000/svg">
<path d="M26.2109 10H22.5359C20.9484 10 19.9984 9.05 19.9984 7.4625V3.7875C19.9984 2.2 20.9484 1.25 22.5359 1.25H26.2109C27.7984 1.25 28.7484 2.2 28.7484 3.7875V7.4625C28.7484 9.05 27.7984 10 26.2109 10ZM26.4859 5.8625C26.3359 5.7125 26.1359 5.6375 25.9359 5.6375C25.7359 5.6375 25.5359 5.7125 25.3859 5.8625L25.1609 6.0875V3.2875C25.1609 2.85 24.8109 2.5 24.3734 2.5C23.9359 2.5 23.5859 2.85 23.5859 3.2875V6.0875L23.3609 5.8625C23.0609 5.5625 22.5609 5.5625 22.2609 5.8625C21.9609 6.1625 21.9609 6.6625 22.2609 6.9625L23.8234 8.525C23.8859 8.5875 23.9734 8.6375 24.0609 8.675C24.0859 8.6875 24.1109 8.6875 24.1359 8.7C24.1984 8.725 24.2609 8.7375 24.3359 8.7375H24.4109C24.4984 8.7375 24.5734 8.725 24.6609 8.6875H24.6859C24.7734 8.65 24.8484 8.6 24.9109 8.5375C24.9234 8.525 24.9234 8.525 24.9359 8.525L26.4984 6.9625C26.7984 6.6625 26.7984 6.1625 26.4859 5.8625ZM11.2484 12.975C12.0375 12.975 12.7942 12.6616 13.3521 12.1036C13.91 11.5457 14.2234 10.789 14.2234 10C14.2234 9.21098 13.91 8.45428 13.3521 7.89636C12.7942 7.33844 12.0375 7.025 11.2484 7.025C10.4594 7.025 9.70272 7.33844 9.14479 7.89636C8.58687 8.45428 8.27344 9.21098 8.27344 10C8.27344 10.789 8.58687 11.5457 9.14479 12.1036C9.70272 12.6616 10.4594 12.975 11.2484 12.975Z" fill="#00A1B0"/>
<path d="M26.2125 10H25.625V15.7625L25.4625 15.625C24.4875 14.7875 22.9125 14.7875 21.9375 15.625L16.7375 20.0875C15.7625 20.925 14.1875 20.925 13.2125 20.0875L12.7875 19.7375C11.9 18.9625 10.4875 18.8875 9.4875 19.5625L4.8125 22.7C4.5375 22 4.375 21.1875 4.375 20.2375V9.7625C4.375 6.2375 6.2375 4.375 9.7625 4.375H20V3.7875C20 3.2875 20.0875 2.8625 20.2875 2.5H9.7625C5.2125 2.5 2.5 5.2125 2.5 9.7625V20.2375C2.5 21.6 2.7375 22.7875 3.2 23.7875C4.275 26.1625 6.575 27.5 9.7625 27.5H20.2375C24.7875 27.5 27.5 24.7875 27.5 20.2375V9.7125C27.1375 9.9125 26.7125 10 26.2125 10Z" fill="#00A1B0"/>
</svg>
