<svg width="30" height="30" viewBox="0 0 30 30" fill="none" xmlns="http://www.w3.org/2000/svg">
<path d="M5.76523 1.32159H21.7269V0H5.02324C4.82645 0 4.63772 0.0696191 4.49857 0.193542C4.35942 0.317464 4.28125 0.48554 4.28125 0.660793V12.4863H5.76523V1.32159ZM29.865 4.89251C29.8442 4.86344 24.7245 0.153304 24.6948 0.132159C24.5653 0.0463929 24.4081 5.45035e-05 24.2467 0H22.4689V6.2141C22.4689 6.38935 22.5471 6.55743 22.6862 6.68135C22.8253 6.80527 23.0141 6.87489 23.2109 6.87489H29.9986V5.27048C29.9985 5.13529 29.9519 5.00337 29.865 4.89251ZM28.5146 28.6784H5.76523V23.8546H4.28125V29.3392C4.28125 29.5145 4.35942 29.6825 4.49857 29.8065C4.63772 29.9304 4.82645 30 5.02324 30H29.2566C29.3541 30.0002 29.4507 29.9832 29.5408 29.9501C29.6309 29.9169 29.7128 29.8682 29.7817 29.8068C29.8506 29.7455 29.9053 29.6725 29.9425 29.5923C29.9797 29.512 29.9988 29.426 29.9986 29.3392V7.53568H28.5146V28.6784Z" fill="#00A1B0"/>
<path d="M12.8777 16.8687C12.109 16.8687 11.8359 17.5831 11.8359 18.1947C11.8359 18.8098 12.1597 19.4719 12.8709 19.4719C13.5906 19.4719 13.9126 18.809 13.9126 18.1519C13.9126 17.7079 13.6963 16.8687 12.8777 16.8687Z" fill="#00A1B0"/>
<path d="M23.1946 22.5331V13.808C23.1946 13.6328 23.1164 13.4647 22.9772 13.3408C22.8381 13.2168 22.6494 13.1472 22.4526 13.1472H0.741989C0.545201 13.1472 0.356473 13.2168 0.217323 13.3408C0.0781736 13.4647 0 13.6328 0 13.808V22.5331C0 22.7084 0.0781736 22.8764 0.217323 23.0004C0.356473 23.1243 0.545201 23.1939 0.741989 23.1939H22.4526C22.6494 23.1939 22.8381 23.1243 22.9772 23.0004C23.1164 22.8764 23.1946 22.7084 23.1946 22.5331ZM6.05967 18.8356C6.05967 20.4286 4.90069 20.6665 4.21004 20.6665C3.93403 20.6663 3.6602 20.623 3.40098 20.5386C3.30648 20.5041 3.22815 20.4418 3.17914 20.362C3.13013 20.2822 3.11341 20.1898 3.13179 20.1003L3.22142 19.6653C3.23322 19.6078 3.25914 19.5533 3.29732 19.5058C3.33551 19.4583 3.38501 19.4189 3.4423 19.3904C3.49959 19.3619 3.56324 19.3451 3.6287 19.341C3.69416 19.337 3.75981 19.3459 3.82094 19.3671C3.9301 19.4026 4.04547 19.4205 4.16167 19.42C4.3991 19.42 4.57035 19.42 4.57035 18.7925V16.0708C4.57035 15.9657 4.61726 15.8648 4.70075 15.7905C4.78424 15.7161 4.89747 15.6744 5.01555 15.6744H5.61448C5.73255 15.6744 5.84579 15.7161 5.92928 15.7905C6.01277 15.8648 6.05967 15.9657 6.05967 16.0708V18.8356ZM8.02446 20.6972C7.52309 20.7027 7.02918 20.5887 6.59391 20.367C6.51458 20.3199 6.45436 20.2513 6.42209 20.1713C6.38982 20.0914 6.38721 20.0043 6.41464 19.923L6.56601 19.4755C6.58567 19.4174 6.62007 19.364 6.66654 19.3196C6.71301 19.2752 6.77031 19.2409 6.83403 19.2193C6.89775 19.1977 6.96618 19.1894 7.03405 19.1951C7.10192 19.2008 7.16742 19.2203 7.22549 19.2521C7.47974 19.3875 7.76982 19.4602 8.06601 19.4628C8.30582 19.4628 8.59164 19.4094 8.59164 19.1544C8.59164 19.0314 8.59164 18.9048 8.00309 18.7032C7.00378 18.3878 6.4921 17.8679 6.4921 17.1622C6.4921 16.282 7.31067 15.6437 8.4379 15.6437C8.87036 15.6337 9.29867 15.721 9.68325 15.8974C9.77331 15.9429 9.84275 16.0149 9.87958 16.1011C9.91642 16.1873 9.91836 16.2822 9.88507 16.3695L9.72005 16.8048C9.69921 16.8596 9.66515 16.9097 9.62026 16.9515C9.57537 16.9934 9.52075 17.0259 9.46022 17.047C9.3997 17.068 9.33474 17.077 9.2699 17.0733C9.20506 17.0696 9.14192 17.0533 9.08491 17.0255C8.87941 16.928 8.64998 16.8773 8.41712 16.8781C8.14852 16.8781 7.98825 16.9613 7.98825 17.1009C7.98825 17.2026 7.98825 17.3081 8.62577 17.5277C9.30958 17.763 10.0949 18.1558 10.0949 19.1115C10.0949 19.9008 9.45442 20.6972 8.02446 20.6972ZM12.8349 20.7003C11.345 20.7003 10.3038 19.6748 10.3038 18.2073C10.3038 16.6959 11.3732 15.6408 12.9038 15.6408C14.3937 15.6408 15.4346 16.6632 15.4346 18.1275C15.4346 19.9047 14.1289 20.7003 12.8346 20.7003H12.8349ZM20.0705 20.2362C20.0705 20.3414 20.0236 20.4422 19.9401 20.5166C19.8566 20.5909 19.7434 20.6327 19.6253 20.6327H19.0195C18.9441 20.6327 18.8698 20.6156 18.8038 20.583C18.7378 20.5505 18.6821 20.5035 18.642 20.4466L17.169 18.35L17.1512 18.3249C17.1518 18.3725 17.1518 18.4211 17.1518 18.4708V20.2365C17.1518 20.3416 17.1049 20.4425 17.0214 20.5168C16.9379 20.5912 16.8247 20.6329 16.7066 20.6329H16.1421C16.024 20.6329 15.9108 20.5912 15.8273 20.5168C15.7438 20.4425 15.6969 20.3416 15.6969 20.2365V16.1041C15.6969 15.999 15.7438 15.8981 15.8273 15.8238C15.9108 15.7494 16.024 15.7077 16.1421 15.7077H16.796C16.8711 15.7077 16.9449 15.7246 17.0107 15.7569C17.0765 15.7891 17.1321 15.8357 17.1723 15.8922L18.6156 17.9213V16.1041C18.6156 15.999 18.6625 15.8981 18.746 15.8238C18.8295 15.7494 18.9427 15.7077 19.0608 15.7077H19.6253C19.7434 15.7077 19.8566 15.7494 19.9401 15.8238C20.0236 15.8981 20.0705 15.999 20.0705 16.1041V20.2362Z" fill="#00A1B0"/>
</svg>
